<svg xmlns="http://www.w3.org/2000/svg" xmlns:xlink="http://www.w3.org/1999/xlink" width="500" zoomAndPan="magnify" viewBox="0 0 375 374.999991" height="500" preserveAspectRatio="xMidYMid meet" version="1.0"><defs><clipPath id="426e3b1c1b"><path d="M 26 26 L 349 26 L 349 349 L 26 349 Z M 26 26 " clip-rule="nonzero"/></clipPath><clipPath id="70618b80af"><path d="M 129.605469 -32.210938 L 406.929688 129.445312 L 245.269531 406.769531 L -32.054688 245.109375 Z M 129.605469 -32.210938 " clip-rule="nonzero"/></clipPath><clipPath id="2aa12dce20"><path d="M 129.605469 -32.210938 L 406.929688 129.445312 L 245.269531 406.769531 L -32.054688 245.109375 Z M 129.605469 -32.210938 " clip-rule="nonzero"/></clipPath></defs><g clip-path="url(#426e3b1c1b)"><g clip-path="url(#70618b80af)"><g clip-path="url(#2aa12dce20)"><path fill="#5271ff" d="M 268.371094 48.667969 C 291.621094 62.222656 310.171875 80.722656 323.527344 102.0625 L 234.097656 255.476562 C 230.929688 260.914062 227.042969 265.324219 222.230469 268.890625 C 217.464844 272.382812 212.25 274.910156 206.589844 276.464844 C 200.976562 277.941406 195.117188 278.273438 189.175781 277.539062 C 183.195312 276.6875 177.445312 274.75 172.085938 271.625 C 166.648438 268.457031 162.207031 264.449219 158.671875 259.757812 C 155.101562 254.945312 152.652344 249.773438 151.097656 244.117188 C 149.664062 238.425781 149.246094 232.71875 149.980469 226.773438 C 150.789062 220.875 152.636719 215.273438 155.804688 209.835938 L 186.746094 156.761719 C 197.925781 137.585938 172.253906 122.621094 160.898438 142.101562 L 130.136719 194.875 C 124.855469 203.933594 121.585938 213.359375 120.453125 223.113281 C 119.242188 232.828125 119.917969 242.425781 122.296875 251.703125 C 124.796875 260.949219 128.9375 269.636719 134.929688 277.582031 C 140.878906 285.597656 148.289062 292.144531 157.121094 297.292969 C 166.183594 302.574219 175.53125 305.800781 185.363281 306.980469 C 195.078125 308.191406 204.675781 307.511719 214.027344 305.179688 C 223.425781 302.765625 232.109375 298.625 240.042969 292.828125 C 247.972656 287.035156 254.5625 279.542969 259.84375 270.484375 L 339.152344 134.4375 C 354.023438 177.296875 350.921875 226.167969 326.320312 268.367188 C 281.648438 345 183.175781 370.945312 106.542969 326.277344 C 83.289062 312.71875 64.738281 294.21875 51.386719 272.882812 L 139.671875 121.429688 C 142.839844 115.996094 146.84375 111.554688 151.613281 108.058594 C 156.347656 104.449219 161.515625 102 167.253906 100.484375 C 172.871094 99.007812 178.652344 98.632812 184.519531 99.324219 C 190.421875 100.136719 196.097656 102.027344 201.457031 105.152344 C 206.816406 108.277344 211.332031 112.328125 215.023438 117.105469 C 218.667969 121.960938 221.191406 127.175781 222.671875 132.789062 C 224.179688 138.527344 224.597656 144.234375 223.789062 150.132812 C 223.054688 156.082031 221.132812 161.632812 217.960938 167.070312 L 185.878906 222.105469 C 176.285156 238.566406 201.984375 253.648438 211.84375 236.738281 L 243.707031 182.078125 C 248.988281 173.015625 252.253906 163.59375 253.394531 153.835938 C 254.527344 144.082031 253.925781 134.523438 251.324219 125.113281 C 248.746094 115.824219 244.605469 107.136719 238.761719 99.285156 C 232.96875 91.351562 225.480469 84.761719 216.421875 79.480469 C 207.585938 74.332031 198.238281 71.109375 188.332031 69.886719 C 178.46875 68.582031 168.867188 69.261719 159.589844 71.640625 C 150.34375 74.140625 141.65625 78.285156 133.804688 84.125 C 125.871094 89.921875 119.28125 97.40625 114 106.46875 L 35.882812 240.476562 C 20.890625 197.648438 24.066406 148.820312 48.714844 106.542969 C 93.382812 29.910156 191.738281 3.996094 268.371094 48.667969 " fill-opacity="1" fill-rule="evenodd"/></g></g></g></svg>